<?xml version="1.0" encoding="iso-8859-1"?>
<!-- Uploaded to: SVG Repo, www.svgrepo.com, Generator: SVG Repo Mixer Tools -->
<svg version="1.1" id="Layer_1" xmlns="http://www.w3.org/2000/svg" xmlns:xlink="http://www.w3.org/1999/xlink" 
	 viewBox="0 0 392.598 392.598" xml:space="preserve">
<path style="fill:#FFC10D;" d="M370.78,32.711c0-6.012-4.848-10.925-10.925-10.925h-88.63v99.426h99.426V32.711H370.78z"/>
<rect x="271.224" y="143.127" style="fill:#FFFFFF;" width="99.426" height="106.408"/>
<g>
	<path style="fill:#194F82;" d="M321.002,30.901c-21.398,0-38.853,17.455-38.853,38.853s17.455,38.853,38.853,38.853
		c21.398,0,38.853-17.455,38.853-38.853S342.4,30.901,321.002,30.901z M321.002,86.756c-9.438,0-17.002-7.628-17.002-17.002
		s7.628-17.002,17.002-17.002c9.374,0,17.002,7.628,17.002,17.002S330.44,86.756,321.002,86.756z"/>
	<path style="fill:#194F82;" d="M317.446,231.822c21.398,0,38.853-17.455,38.853-38.853s-17.455-38.853-38.853-38.853
		s-38.853,17.455-38.853,38.853S295.984,231.822,317.446,231.822z M317.446,175.968c9.438,0,17.002,7.628,17.002,17.002
		c0,9.374-7.628,17.002-17.002,17.002c-9.374,0-17.002-7.628-17.002-17.002C300.444,183.596,308.008,175.968,317.446,175.968z"/>
	<path style="fill:#194F82;" d="M66.424,104.339c21.398,0,38.853-17.455,38.853-38.853S87.822,26.634,66.424,26.634
		S27.572,44.089,27.572,65.552S44.897,104.339,66.424,104.339z M66.424,48.42c9.438,0,17.002,7.628,17.002,17.002
		s-7.628,17.002-17.002,17.002s-17.002-7.628-17.002-17.002C49.422,56.113,56.986,48.42,66.424,48.42z"/>
</g>
<rect x="143.16" y="21.786" style="fill:#56ACE0;" width="106.408" height="99.426"/>
<rect x="143.16" y="143.127" style="fill:#FFFFFF;" width="106.408" height="106.408"/>
<g>
	<rect x="143.16" y="271.321" style="fill:#FFC10D;" width="106.408" height="99.426"/>
	<rect x="21.818" y="143.127" style="fill:#FFC10D;" width="99.426" height="106.408"/>
</g>
<g>
	<path style="fill:#56ACE0;" d="M271.224,370.747h88.566c6.012,0,10.925-4.848,10.925-10.925v-88.566h-99.491V370.747z"/>
	<path style="fill:#56ACE0;" d="M121.244,271.257v99.491H32.743c-6.012,0-10.925-4.848-10.925-10.925v-88.566H121.244z"/>
</g>
<path style="fill:#FFFFFF;" d="M321.002,52.687c-9.438,0-17.002,7.628-17.002,17.002s7.628,17.002,17.002,17.002
	c9.374,0,17.002-7.628,17.002-17.002S330.44,52.687,321.002,52.687z"/>
<g>
	<path style="fill:#194F82;" d="M166.756,225.81c4.267,4.267,11.119,4.267,15.451,0l14.093-14.093l14.158,14.158
		c4.267,4.267,11.119,4.267,15.451,0c4.267-4.267,4.267-11.119,0-15.451l-14.158-14.158l14.158-14.158
		c4.267-4.267,4.267-11.119,0-15.451c-4.267-4.267-11.119-4.267-15.451,0l-14.158,14.158l-14.158-14.158
		c-4.267-4.267-11.119-4.267-15.451,0c-4.267,4.267-4.267,11.119,0,15.451l14.158,14.158l-14.158,14.158
		C162.424,214.626,162.424,221.543,166.756,225.81z"/>
	<path style="fill:#194F82;" d="M166.756,99.297c4.267,4.267,11.119,4.267,15.451,0l14.158-14.158l14.158,14.158
		c4.267,4.267,11.119,4.267,15.451,0c4.267-4.267,4.267-11.119,0-15.451l-14.222-14.158l14.158-14.158
		c4.267-4.267,4.267-11.119,0-15.451c-4.267-4.267-11.119-4.267-15.451,0l-14.158,14.222l-14.158-14.158
		c-4.267-4.267-11.119-4.267-15.451,0c-4.331,4.267-4.267,11.119,0,15.451l14.158,14.093l-14.158,14.158
		C162.424,88.113,162.424,95.03,166.756,99.297z"/>
	<path style="fill:#194F82;" d="M36.816,351.677c4.267,4.267,11.119,4.267,15.451,0l14.158-14.158l14.158,14.158
		c4.267,4.267,11.119,4.267,15.451,0c4.267-4.267,4.267-11.119,0-15.451l-14.158-14.158l14.158-14.158
		c4.267-4.267,4.267-11.119,0-15.451c-4.267-4.331-11.119-4.267-15.451,0l-14.158,14.158l-14.158-14.158
		c-4.267-4.267-11.119-4.267-15.451,0c-4.331,4.267-4.267,11.119,0,15.451l14.158,14.158l-14.158,14.158
		C32.55,340.558,32.55,347.41,36.816,351.677z"/>
	<path style="fill:#194F82;" d="M359.855,0H32.743C14.707,0,0.032,14.675,0.032,32.711v327.111
		c0,18.101,14.675,32.776,32.711,32.776h327.111c18.036,0,32.711-14.675,32.711-32.711V32.711C392.566,14.675,377.891,0,359.855,0z
		 M121.244,370.747H32.743c-6.012,0-10.925-4.848-10.925-10.925v-88.566h99.426V370.747z M121.244,249.406H21.818V143.127h99.426
		V249.406z M121.244,121.212H21.818V32.711c0-6.012,4.848-10.925,10.925-10.925h88.566v99.426H121.244z M249.438,370.747H143.16
		v-99.426h106.408v99.426L249.438,370.747L249.438,370.747z M249.438,249.406H143.16V143.127h106.408v106.343L249.438,249.406
		L249.438,249.406z M249.438,121.212H143.16V21.786h106.408v99.426H249.438z M370.78,359.822c0,6.012-4.848,10.925-10.925,10.925
		h-88.63v-99.426h99.426v88.566L370.78,359.822L370.78,359.822z M370.78,249.406h-99.556V143.127h99.426v106.343L370.78,249.406
		L370.78,249.406z M370.78,121.212h-99.556V21.786h88.566c6.012,0,10.925,4.848,10.925,10.925v88.566h0.065V121.212z"/>
</g>
</svg>