<?xml version="1.0" encoding="iso-8859-1"?>
<!-- Uploaded to: SVG Repo, www.svgrepo.com, Generator: SVG Repo Mixer Tools -->
<svg version="1.1" id="Layer_1" xmlns="http://www.w3.org/2000/svg" xmlns:xlink="http://www.w3.org/1999/xlink" 
	 viewBox="0 0 392.727 392.727" xml:space="preserve">
<path style="fill:#194F82;" d="M381.77,247.273H269.091V145.455H381.77c6.012,0,10.925-4.848,10.925-10.925
	c0-6.012-4.848-10.925-10.925-10.925H269.091V10.925C269.091,4.913,264.178,0,258.166,0S247.24,4.848,247.24,10.925v112.679H145.422
	V10.925C145.422,4.913,140.574,0,134.497,0s-10.925,4.848-10.925,10.925v112.679H10.958c-6.012,0-10.925,4.848-10.925,10.925
	c0,6.077,4.848,10.925,10.925,10.925h112.679v101.754H10.958c-6.012,0.065-10.925,4.978-10.925,10.99s4.848,10.925,10.925,10.925
	h112.679v112.679c0,6.012,4.848,10.925,10.925,10.925c6.077,0,10.925-4.848,10.925-10.925V269.059H247.24v112.679
	c0,6.012,4.848,10.925,10.925,10.925c6.012,0,10.925-4.848,10.925-10.925V269.059H381.77c6.012,0,10.925-4.848,10.925-10.925
	C392.695,252.057,387.782,247.273,381.77,247.273z M247.24,247.273H145.422V145.455h101.754v101.818H247.24z"/>
<path style="fill:#56ACE0;" d="M269.091,123.604H381.77V10.925H269.091l0,0V123.604z"/>
<g>
	<rect x="145.422" y="145.455" style="fill:#FFC10D;" width="101.754" height="101.754"/>
	<path style="fill:#FFC10D;" d="M123.636,10.925L123.636,10.925H10.958v112.743h112.679V10.925z"/>
</g>
<rect x="145.422" y="269.059" style="fill:#56ACE0;" width="101.754" height="112.679"/>
<g>
	<path style="fill:#194F82;" d="M166.82,225.552c4.655,4.008,9.762,4.59,15.451,0.065l14.158-13.964l14.158,13.964
		c5.689,4.461,10.796,3.943,15.451-0.065c4.267-4.267,4.267-11.184-0.065-15.451l-13.964-13.899l13.964-13.899
		c4.267-4.267,4.331-11.119,0.065-15.451c-4.267-4.267-11.119-4.331-15.451-0.065l-14.222,14.028l-14.158-13.964
		c-4.267-4.267-11.184-4.267-15.451,0.065c-4.267,4.267-4.267,11.184,0.065,15.451l13.964,13.899l-13.964,13.899
		C162.618,214.368,162.618,221.22,166.82,225.552z"/>
	<path style="fill:#194F82;" d="M43.216,101.883c4.655,4.008,9.762,4.59,15.451,0.065l14.158-13.964l14.158,13.964
		c5.689,4.461,10.796,3.943,15.451-0.065c4.267-4.267,4.267-11.184-0.065-15.451L88.404,72.533l13.964-13.899
		c4.267-4.267,4.331-11.119,0.065-15.451c-4.267-4.267-11.119-4.331-15.451-0.065L72.824,57.277L58.667,43.248
		c-4.267-4.267-11.184-4.267-15.451,0.065c-4.267,4.267-4.267,11.184,0.065,15.451l13.964,13.899L43.281,86.562
		C39.014,90.764,38.949,97.681,43.216,101.883z"/>
	<path style="fill:#194F82;" d="M102.368,290.586c-4.267-4.267-11.119-4.331-15.451-0.065L72.76,304.485l-14.093-13.964
		c-4.267-4.267-11.184-4.267-15.451,0.065c-4.267,4.267-4.267,11.184,0.065,15.451l13.964,13.899l-13.964,13.899
		c-4.267,4.267-4.331,11.119-0.065,15.451c4.655,4.008,9.762,4.59,15.451,0.065l14.158-13.964l14.158,13.964
		c5.689,4.461,10.796,3.943,15.451-0.065c4.267-4.267,4.267-11.184-0.065-15.451l-13.964-13.899l13.964-13.899
		C106.57,301.834,106.634,294.853,102.368,290.586z"/>
</g>
<path style="fill:#FFFFFF;" d="M319.903,61.867c-6.012,0-10.925,4.848-10.925,10.925c0,6.012,4.848,10.925,10.925,10.925
	c6.077,0,10.925-4.848,10.925-10.925C330.828,66.715,325.98,61.867,319.903,61.867z"/>
<path style="fill:#194F82;" d="M319.903,40.081c-18.036,0-32.711,14.675-32.711,32.711s14.675,32.711,32.711,32.711
	c18.036,0,32.711-14.675,32.711-32.711S337.939,40.081,319.903,40.081z M319.903,83.653c-6.012,0-10.925-4.848-10.925-10.925
	c0-6.012,4.848-10.925,10.925-10.925c6.077,0,10.925,4.848,10.925,10.925C330.828,78.804,325.98,83.653,319.903,83.653z"/>
<path style="fill:#FFFFFF;" d="M196.364,309.01c-6.012,0-10.925,4.848-10.925,10.925c0,6.012,4.848,10.925,10.925,10.925
	c6.012,0,10.925-4.848,10.925-10.925S202.376,309.01,196.364,309.01z"/>
<path style="fill:#194F82;" d="M196.364,287.224c-18.036,0-32.711,14.675-32.711,32.711c0,18.036,14.675,32.711,32.711,32.711
	s32.711-14.675,32.711-32.711S214.4,287.224,196.364,287.224z M196.364,330.861c-6.012,0-10.925-4.848-10.925-10.925
	s4.848-10.925,10.925-10.925c6.012,0,10.925,4.848,10.925,10.925S202.376,330.861,196.364,330.861z"/>
</svg>